<svg xmlns="http://www.w3.org/2000/svg" width="24" height="59.301" viewBox="0 0 24 59.301">
  <g id="iconfinder_beer_bottle_alcohol_drink_beverage_pub_6740144" transform="translate(-20 -2.699)">
    <path id="Path_2" data-name="Path 2" d="M34.76,7.513H26.938a1.6,1.6,0,0,1-1.307-.706,2,2,0,0,1-.3-1.577l.258-1.142A2.549,2.549,0,0,1,28,2h5.7a2.55,2.55,0,0,1,2.413,2.088l.258,1.142a2,2,0,0,1-.3,1.577A1.6,1.6,0,0,1,34.76,7.513Z" transform="translate(1.151 0.699)" fill="#19b3a6"/>
    <path id="Path_3" data-name="Path 3" d="M38.779,26.84A29.329,29.329,0,0,0,39,23c0-3.074-1.941-11.845-2.024-12.217-.1-.457-.267-2.843-.263-2.85H27.346s-.22,2.393-.322,2.85C26.941,11.155,25,19.926,25,23a29.327,29.327,0,0,0,.221,3.84A9.01,9.01,0,0,0,20,35V57a5.006,5.006,0,0,0,5,5H39a5.006,5.006,0,0,0,5-5V35a9.01,9.01,0,0,0-5.221-8.16Z" fill="#19b3a6"/>
  </g>
</svg>
