<svg xmlns="http://www.w3.org/2000/svg" xmlns:xlink="http://www.w3.org/1999/xlink" width="54.713" height="56.713" viewBox="0 0 54.713 56.713">
  <defs>
    <clipPath id="clip-path">
      <path id="username" d="M14.013,23.5c-.762-1.336-2.181-3.171-2.181-4.759a2.543,2.543,0,0,1,1.538-2.322c-.07-1.336-.118-2.7-.118-4.046,0-.8,0-1.6.041-2.388a8.614,8.614,0,0,1,.24-1.481,8.425,8.425,0,0,1,3.405-4.825A9.57,9.57,0,0,1,18.786,2.7c1.179-.474.6-2.672,1.878-2.7,3-.087,7.927,2.973,9.85,5.3a9.044,9.044,0,0,1,1.963,5.5l-.122,5.856a1.79,1.79,0,0,1,1.261,1.2c.41,1.852-1.309,4.149-2.107,5.621-.739,1.357-3.557,5.745-3.557,5.774a1.233,1.233,0,0,0,.251.68c4.374,6.706,17.23,2.474,17.23,15.812H0C0,32.4,12.859,36.635,17.23,29.93a1.546,1.546,0,0,0,.311-.7c0-.087-3.239-5.2-3.527-5.712Z" transform="translate(1048.464 393.078)" fill="#4bafa1" opacity="0.25"/>
    </clipPath>
  </defs>
  <g id="Group_79" data-name="Group 79" transform="translate(-1041.824 -378)">
    <path id="Path_8" data-name="Path 8" d="M27.356,0A27.356,27.356,0,1,1,0,27.356,27.356,27.356,0,0,1,27.356,0Z" transform="translate(1041.824 378)" fill="#63c8ba"/>
    <g id="Mask_Group_1" data-name="Mask Group 1" transform="translate(-2 -4.102)" clip-path="url(#clip-path)">
      <path id="Path_5" data-name="Path 5" d="M27.356,0A27.356,27.356,0,1,1,0,27.356,27.356,27.356,0,0,1,27.356,0Z" transform="translate(1043.824 381.588)" fill="#4bafa1"/>
    </g>
  </g>
</svg>
